<svg xmlns="http://www.w3.org/2000/svg" viewBox="0 0 512 512">
  <defs>
    <linearGradient id="grad1" x1="0%" y1="0%" x2="100%" y2="100%">
      <stop offset="0%" style="stop-color:#a14573;stop-opacity:1" />
      <stop offset="100%" style="stop-color:#287b78;stop-opacity:1" />
    </linearGradient>
  </defs>
  <circle cx="256" cy="256" r="240" fill="url(#grad1)" />
  <circle cx="256" cy="256" r="180" fill="white" fill-opacity="0.1" />
  <path d="M256 120 C 180 120, 120 180, 120 256 C 120 332, 180 392, 256 392 C 332 392, 392 332, 392 256 C 392 180, 332 120, 256 120 Z" fill="white" />
  <path d="M256 160 C 203 160, 160 203, 160 256 C 160 309, 203 352, 256 352 C 309 352, 352 309, 352 256 C 352 203, 309 160, 256 160 Z" fill="url(#grad1)" />
</svg>